<svg width="24" height="24" viewBox="0 0 24 24" fill="none" xmlns="http://www.w3.org/2000/svg">
<path d="M20.7823 3.21757C20.681 3.11683 20.5532 3.04707 20.4137 3.01652C20.2742 2.98596 20.1288 2.99586 19.9948 3.04507L3.49476 9.04507C3.35246 9.09905 3.22995 9.19503 3.14349 9.32029C3.05704 9.44554 3.01074 9.59413 3.01074 9.74632C3.01074 9.89851 3.05704 10.0471 3.14349 10.1724C3.22995 10.2976 3.35246 10.3936 3.49476 10.4476L9.93726 13.0201L14.6923 8.25007L15.7498 9.30757L10.9723 14.0851L13.5523 20.5276C13.6078 20.6671 13.704 20.7868 13.8284 20.871C13.9528 20.9553 14.0995 21.0002 14.2498 21.0001C14.4013 20.997 14.5484 20.948 14.6716 20.8596C14.7947 20.7713 14.8882 20.6476 14.9398 20.5051L20.9398 4.00507C20.9909 3.87238 21.0032 3.72789 20.9753 3.58846C20.9474 3.44903 20.8805 3.3204 20.7823 3.21757Z" fill="white"/>
</svg>
